<svg width="271" height="271" viewBox="0 0 271 271" fill="none" xmlns="http://www.w3.org/2000/svg">
<rect x="1" y="1" width="269" height="269" rx="11" stroke="black" stroke-width="2" stroke-dasharray="10 10"/>
<path d="M57.6152 239C57.3352 238.18 57.0452 237.37 56.7452 236.57C56.4452 235.77 56.1552 234.95 55.8752 234.11H47.1152C46.8352 234.95 46.5452 235.78 46.2452 236.6C45.9652 237.4 45.6852 238.2 45.4052 239H41.4752C42.2552 236.78 42.9952 234.73 43.6952 232.85C44.3952 230.97 45.0752 229.19 45.7352 227.51C46.4152 225.83 47.0852 224.23 47.7452 222.71C48.4052 221.19 49.0852 219.69 49.7852 218.21H53.3552C54.0552 219.69 54.7352 221.19 55.3952 222.71C56.0552 224.23 56.7152 225.83 57.3752 227.51C58.0552 229.19 58.7452 230.97 59.4452 232.85C60.1652 234.73 60.9152 236.78 61.6952 239H57.6152ZM51.4952 222.23C51.0352 223.29 50.5052 224.58 49.9052 226.1C49.3252 227.62 48.7152 229.27 48.0752 231.05H54.9152C54.2752 229.27 53.6552 227.61 53.0552 226.07C52.4552 224.53 51.9352 223.25 51.4952 222.23ZM66.5829 231.11C66.5829 232.71 66.9629 233.97 67.7229 234.89C68.4829 235.79 69.5329 236.24 70.8729 236.24C71.4529 236.24 71.9429 236.22 72.3429 236.18C72.7629 236.12 73.1029 236.06 73.3629 236V227C73.0429 226.78 72.6129 226.58 72.0729 226.4C71.5529 226.2 70.9929 226.1 70.3929 226.1C69.0729 226.1 68.1029 226.55 67.4829 227.45C66.8829 228.35 66.5829 229.57 66.5829 231.11ZM76.9929 238.52C76.2729 238.74 75.3629 238.94 74.2629 239.12C73.1829 239.3 72.0429 239.39 70.8429 239.39C69.6029 239.39 68.4929 239.2 67.5129 238.82C66.5329 238.44 65.6929 237.9 64.9929 237.2C64.3129 236.48 63.7829 235.62 63.4029 234.62C63.0429 233.6 62.8629 232.46 62.8629 231.2C62.8629 229.96 63.0129 228.84 63.3129 227.84C63.6329 226.82 64.0929 225.95 64.6929 225.23C65.2929 224.51 66.0229 223.96 66.8829 223.58C67.7429 223.18 68.7329 222.98 69.8529 222.98C70.6129 222.98 71.2829 223.07 71.8629 223.25C72.4429 223.43 72.9429 223.63 73.3629 223.85V216.32L76.9929 215.72V238.52ZM84.4539 231.11C84.4539 232.71 84.8339 233.97 85.5939 234.89C86.3539 235.79 87.4039 236.24 88.7439 236.24C89.3239 236.24 89.8139 236.22 90.2139 236.18C90.6339 236.12 90.9739 236.06 91.2339 236V227C90.9139 226.78 90.4839 226.58 89.9439 226.4C89.4239 226.2 88.8639 226.1 88.2639 226.1C86.9439 226.1 85.9739 226.55 85.3539 227.45C84.7539 228.35 84.4539 229.57 84.4539 231.11ZM94.8639 238.52C94.1439 238.74 93.2339 238.94 92.1339 239.12C91.0539 239.3 89.9139 239.39 88.7139 239.39C87.4739 239.39 86.3639 239.2 85.3839 238.82C84.4039 238.44 83.5639 237.9 82.8639 237.2C82.1839 236.48 81.6539 235.62 81.2739 234.62C80.9139 233.6 80.7339 232.46 80.7339 231.2C80.7339 229.96 80.8839 228.84 81.1839 227.84C81.5039 226.82 81.9639 225.95 82.5639 225.23C83.1639 224.51 83.8939 223.96 84.7539 223.58C85.6139 223.18 86.6039 222.98 87.7239 222.98C88.4839 222.98 89.1539 223.07 89.7339 223.25C90.3139 223.43 90.8139 223.63 91.2339 223.85V216.32L94.8639 215.72V238.52ZM112.537 218C115.557 218 117.867 218.55 119.467 219.65C121.087 220.75 121.897 222.47 121.897 224.81C121.897 226.03 121.677 227.08 121.237 227.96C120.817 228.82 120.197 229.53 119.377 230.09C118.557 230.63 117.557 231.03 116.377 231.29C115.197 231.55 113.847 231.68 112.327 231.68H110.437V239H106.657V218.51C107.537 218.31 108.507 218.18 109.567 218.12C110.647 218.04 111.637 218 112.537 218ZM112.807 221.27C111.847 221.27 111.057 221.3 110.437 221.36V228.44H112.267C114.087 228.44 115.487 228.19 116.467 227.69C117.447 227.17 117.937 226.2 117.937 224.78C117.937 224.1 117.807 223.53 117.547 223.07C117.287 222.61 116.927 222.25 116.467 221.99C116.007 221.73 115.457 221.55 114.817 221.45C114.197 221.33 113.527 221.27 112.807 221.27ZM138.831 231.14C138.831 232.38 138.651 233.51 138.291 234.53C137.931 235.55 137.421 236.42 136.761 237.14C136.101 237.86 135.301 238.42 134.361 238.82C133.441 239.22 132.421 239.42 131.301 239.42C130.181 239.42 129.161 239.22 128.241 238.82C127.321 238.42 126.531 237.86 125.871 237.14C125.211 236.42 124.691 235.55 124.311 234.53C123.951 233.51 123.771 232.38 123.771 231.14C123.771 229.9 123.951 228.78 124.311 227.78C124.691 226.76 125.211 225.89 125.871 225.17C126.551 224.45 127.351 223.9 128.271 223.52C129.191 223.12 130.201 222.92 131.301 222.92C132.401 222.92 133.411 223.12 134.331 223.52C135.271 223.9 136.071 224.45 136.731 225.17C137.391 225.89 137.901 226.76 138.261 227.78C138.641 228.78 138.831 229.9 138.831 231.14ZM135.111 231.14C135.111 229.58 134.771 228.35 134.091 227.45C133.431 226.53 132.501 226.07 131.301 226.07C130.101 226.07 129.161 226.53 128.481 227.45C127.821 228.35 127.491 229.58 127.491 231.14C127.491 232.72 127.821 233.97 128.481 234.89C129.161 235.81 130.101 236.27 131.301 236.27C132.501 236.27 133.431 235.81 134.091 234.89C134.771 233.97 135.111 232.72 135.111 231.14ZM151.511 226.58C151.211 226.48 150.791 226.38 150.251 226.28C149.731 226.16 149.121 226.1 148.421 226.1C148.021 226.1 147.591 226.14 147.131 226.22C146.691 226.3 146.381 226.37 146.201 226.43V239H142.571V224.06C143.271 223.8 144.141 223.56 145.181 223.34C146.241 223.1 147.411 222.98 148.691 222.98C148.931 222.98 149.211 223 149.531 223.04C149.851 223.06 150.171 223.1 150.491 223.16C150.811 223.2 151.121 223.26 151.421 223.34C151.721 223.4 151.961 223.46 152.141 223.52L151.511 226.58ZM154.49 219.17L158.12 218.57V223.31H163.7V226.34H158.12V232.73C158.12 233.99 158.32 234.89 158.72 235.43C159.12 235.97 159.8 236.24 160.76 236.24C161.42 236.24 162 236.17 162.5 236.03C163.02 235.89 163.43 235.76 163.73 235.64L164.33 238.52C163.91 238.7 163.36 238.88 162.68 239.06C162 239.26 161.2 239.36 160.28 239.36C159.16 239.36 158.22 239.21 157.46 238.91C156.72 238.61 156.13 238.18 155.69 237.62C155.25 237.04 154.94 236.35 154.76 235.55C154.58 234.73 154.49 233.8 154.49 232.76V219.17ZM173.599 215.72C174.439 215.72 175.179 215.8 175.819 215.96C176.459 216.1 176.939 216.23 177.259 216.35L176.569 219.35C176.229 219.19 175.829 219.06 175.369 218.96C174.929 218.86 174.449 218.81 173.929 218.81C173.349 218.81 172.859 218.9 172.459 219.08C172.059 219.24 171.739 219.47 171.499 219.77C171.259 220.07 171.089 220.44 170.989 220.88C170.889 221.3 170.839 221.76 170.839 222.26V223.31H176.539V226.34H170.839V239H167.209V222.2C167.209 220.18 167.739 218.6 168.799 217.46C169.859 216.3 171.459 215.72 173.599 215.72ZM193.118 231.14C193.118 232.38 192.938 233.51 192.578 234.53C192.218 235.55 191.708 236.42 191.048 237.14C190.388 237.86 189.588 238.42 188.648 238.82C187.728 239.22 186.708 239.42 185.588 239.42C184.468 239.42 183.448 239.22 182.528 238.82C181.608 238.42 180.818 237.86 180.158 237.14C179.498 236.42 178.978 235.55 178.598 234.53C178.238 233.51 178.058 232.38 178.058 231.14C178.058 229.9 178.238 228.78 178.598 227.78C178.978 226.76 179.498 225.89 180.158 225.17C180.838 224.45 181.638 223.9 182.558 223.52C183.478 223.12 184.488 222.92 185.588 222.92C186.688 222.92 187.698 223.12 188.618 223.52C189.558 223.9 190.358 224.45 191.018 225.17C191.678 225.89 192.188 226.76 192.548 227.78C192.928 228.78 193.118 229.9 193.118 231.14ZM189.398 231.14C189.398 229.58 189.058 228.35 188.378 227.45C187.718 226.53 186.788 226.07 185.588 226.07C184.388 226.07 183.448 226.53 182.768 227.45C182.108 228.35 181.778 229.58 181.778 231.14C181.778 232.72 182.108 233.97 182.768 234.89C183.448 235.81 184.388 236.27 185.588 236.27C186.788 236.27 187.718 235.81 188.378 234.89C189.058 233.97 189.398 232.72 189.398 231.14ZM202.318 239.3C201.238 239.28 200.338 239.16 199.618 238.94C198.918 238.72 198.358 238.41 197.938 238.01C197.518 237.59 197.218 237.08 197.038 236.48C196.878 235.86 196.798 235.16 196.798 234.38V216.32L200.428 215.72V233.69C200.428 234.13 200.458 234.5 200.518 234.8C200.598 235.1 200.728 235.36 200.908 235.58C201.088 235.78 201.328 235.94 201.628 236.06C201.948 236.16 202.348 236.24 202.828 236.3L202.318 239.3ZM209.424 239H205.794V223.31H209.424V239ZM209.814 218.72C209.814 219.4 209.594 219.94 209.154 220.34C208.714 220.74 208.194 220.94 207.594 220.94C206.974 220.94 206.444 220.74 206.004 220.34C205.564 219.94 205.344 219.4 205.344 218.72C205.344 218.02 205.564 217.47 206.004 217.07C206.444 216.67 206.974 216.47 207.594 216.47C208.194 216.47 208.714 216.67 209.154 217.07C209.594 217.47 209.814 218.02 209.814 218.72ZM228.245 231.14C228.245 232.38 228.065 233.51 227.705 234.53C227.345 235.55 226.835 236.42 226.175 237.14C225.515 237.86 224.715 238.42 223.775 238.82C222.855 239.22 221.835 239.42 220.715 239.42C219.595 239.42 218.575 239.22 217.655 238.82C216.735 238.42 215.945 237.86 215.285 237.14C214.625 236.42 214.105 235.55 213.725 234.53C213.365 233.51 213.185 232.38 213.185 231.14C213.185 229.9 213.365 228.78 213.725 227.78C214.105 226.76 214.625 225.89 215.285 225.17C215.965 224.45 216.765 223.9 217.685 223.52C218.605 223.12 219.615 222.92 220.715 222.92C221.815 222.92 222.825 223.12 223.745 223.52C224.685 223.9 225.485 224.45 226.145 225.17C226.805 225.89 227.315 226.76 227.675 227.78C228.055 228.78 228.245 229.9 228.245 231.14ZM224.525 231.14C224.525 229.58 224.185 228.35 223.505 227.45C222.845 226.53 221.915 226.07 220.715 226.07C219.515 226.07 218.575 226.53 217.895 227.45C217.235 228.35 216.905 229.58 216.905 231.14C216.905 232.72 217.235 233.97 217.895 234.89C218.575 235.81 219.515 236.27 220.715 236.27C221.915 236.27 222.845 235.81 223.505 234.89C224.185 233.97 224.525 232.72 224.525 231.14Z" fill="black"/>
<path d="M112.877 115.3H132.577V93.6H138.377V115.3H158.077V120.9H138.377V142.7H132.577V120.9H112.877V115.3Z" fill="black" fill-opacity="0.75"/>
</svg>
